# Blender 5.0.1
# www.blender.org
mtllib House.mtl
o House
v 2.000000 2.000000 -3.000000
v 2.000000 2.000000 3.000000
v -2.000000 2.000000 -3.000000
v -2.000000 2.000000 3.000000
v 0.000000 3.600000 3.000000
v 0.000000 3.600000 -3.000000
v 2.124939 2.233350 -3.000000
v 2.124939 2.233350 3.000000
v -2.124939 2.233350 3.000000
v -2.124939 2.233350 -3.000000
v -0.122916 3.834968 -3.000000
v 0.122917 3.834968 -3.000000
v 0.000000 3.775891 -3.000000
v -0.066522 3.865113 -3.000000
v 0.000000 3.875699 -3.000000
v 0.066522 3.865113 -3.000000
v 0.122916 3.834968 3.000000
v -0.122917 3.834968 3.000000
v 0.000000 3.775891 3.000000
v 0.066522 3.865113 3.000000
v -0.000000 3.875699 3.000000
v -0.066522 3.865113 3.000000
v 2.000000 2.000000 -3.000000
v 2.000000 2.000000 3.000000
v -2.000000 2.000000 3.000000
v -2.000000 2.000000 -3.000000
v 2.124939 2.233350 -3.000000
v 2.124939 2.233350 3.000000
v -2.124939 2.233350 3.000000
v -2.124939 2.233350 -3.000000
v 2.352636 1.811193 -3.000000
v 2.352636 1.811193 3.000000
v -2.352636 1.811193 3.000000
v -2.352636 1.811193 -3.000000
v 2.477575 2.044543 -3.000000
v 2.477575 2.044543 3.000000
v -2.477575 2.044543 3.000000
v -2.477575 2.044543 -3.000000
v 2.000000 2.000000 -2.728626
v 2.000000 -2.000000 -2.728626
v 2.000000 2.000000 2.728626
v 2.000000 -2.000000 2.728626
v -2.000000 2.000000 -2.728626
v -2.000000 -2.000000 -2.728626
v -2.000000 2.000000 2.728626
v -2.000000 -2.000000 2.728626
v 0.000000 3.599999 2.728626
v 0.000000 3.599999 -2.728626
v 2.000000 -1.431789 -2.728626
v -2.000000 -1.431789 2.728626
v 2.000000 -1.431789 2.728626
v -2.000000 -1.431789 -2.728626
v -2.000000 -2.000000 -2.728626
v -2.000000 -2.000000 2.728626
v 2.000000 -2.000000 -2.728626
v 2.000000 -1.431789 -2.728626
v 2.000000 -1.431789 2.728626
v 2.000000 -2.000000 2.728626
v -2.000000 -1.431789 -2.728626
v -2.000000 -1.431789 2.728626
v -2.000000 -2.000000 -2.728626
v -2.000000 -2.000000 2.728626
v 2.000000 -2.000000 -2.728626
v 2.000000 -1.431789 -2.728626
v 2.000000 -1.431789 2.728626
v 2.000000 -2.000000 2.728626
v -2.000000 -1.431789 -2.728626
v -2.000000 -1.431789 2.728626
v -2.271698 -2.038595 -3.099307
v -2.271698 -2.038595 3.099307
v 2.271698 -2.038595 -3.099307
v 2.271698 -1.393194 -3.099307
v 2.271698 -1.393194 3.099307
v 2.271698 -2.038595 3.099307
v -2.271698 -1.393194 -3.099307
v -2.271698 -1.393194 3.099307
v -1.491724 2.456399 -1.826698
v -1.491724 4.742113 -1.826698
v -1.491724 2.456399 -2.281469
v -1.491724 4.742113 -2.281469
v -0.991724 2.456399 -1.826698
v -0.991724 4.742113 -1.826698
v -0.991724 2.456399 -2.281469
v -0.991724 4.742113 -2.281469
v -1.675787 4.742113 -1.659285
v -1.675787 4.742113 -2.448882
v -0.807662 4.742113 -2.448882
v -0.807662 4.742113 -1.659285
v -1.550343 4.902462 -1.773382
v -1.550343 4.902462 -2.334785
v -0.933106 4.902462 -2.334785
v -0.933106 4.902462 -1.773382
v -1.675787 4.902462 -1.659285
v -1.675787 4.902462 -2.448882
v -0.807662 4.902462 -2.448882
v -0.807662 4.902462 -1.659285
v -1.550343 4.817217 -1.773382
v -1.550343 4.817217 -2.334785
v -0.933106 4.817217 -2.334785
v -0.933106 4.817217 -1.773382
v -1.710685 -1.395897 0.566135
v -1.710685 1.166249 0.566135
v -1.710685 -1.395897 -0.566135
v -1.710685 1.166249 -0.566135
v -2.035860 -1.395897 0.566135
v -2.035860 1.166249 0.566135
v -2.035860 -1.395897 -0.566135
v -2.035860 1.166249 -0.566135
vn -0.6247 -0.7809 -0.0000
vn 0.6247 -0.7809 -0.0000
vn -0.0000 1.0000 -0.0000
vn -0.0000 -0.0000 -1.0000
vn -0.0000 -0.0000 1.0000
vn -0.4714 0.8819 -0.0000
vn -0.1572 0.9876 -0.0000
vn 0.1572 0.9876 -0.0000
vn 0.4714 0.8819 -0.0000
vn -0.6247 0.7809 -0.0000
vn 0.6247 0.7809 -0.0000
vn 0.8816 -0.4720 -0.0000
vn -0.8816 -0.4720 -0.0000
vn 0.4720 0.8816 -0.0000
vn -0.4720 -0.8816 -0.0000
vn -0.4720 0.8816 -0.0000
vn 0.4720 -0.8816 -0.0000
vn -1.0000 -0.0000 -0.0000
vn 1.0000 -0.0000 -0.0000
vn -0.0000 0.9946 0.1036
vn 0.1406 0.9901 -0.0000
vn -0.0000 0.9946 -0.1036
vn -0.1406 0.9901 -0.0000
vn -0.0000 -1.0000 -0.0000
vt 0.625000 0.750000
vt 0.625000 0.500000
vt 0.625000 0.250000
vt 0.625000 0.000000
vt 0.625000 0.250000
vt 0.625000 0.000000
vt 0.410513 0.750000
vt 0.625000 1.000000
vt 0.410513 1.000000
vt 0.410513 0.000000
vt 0.410513 0.250000
vt 0.410513 0.500000
vt 0.000000 0.000000
vt 0.375000 0.250000
vt 0.375000 0.500000
vt 0.375000 0.750000
vt 0.375000 0.000000
vt 0.375000 1.000000
vt 0.661125 0.713875
vt 0.661125 0.536125
vt 0.838875 0.713875
vt 0.838875 0.536125
vt 0.875000 0.500000
vt 0.875000 0.750000
vt 0.125000 0.500000
vt 0.125000 0.750000
s 0
usemtl Material
f 2/1/1 5/1/1 6/2/1 1/2/1
f 3/3/2 6/3/2 5/4/2 4/4/2
f 2/1/3 1/2/3 23/2/3 24/1/3
f 4/4/3 9/4/3 29/4/3 25/4/3
f 11/3/4 14/5/4 13/3/4
f 14/5/4 15/3/4 13/3/4
f 15/3/4 16/3/4 13/3/4
f 16/3/4 12/3/4 13/3/4
f 17/4/5 20/6/5 19/4/5
f 20/6/5 21/4/5 19/4/5
f 21/4/5 22/4/5 19/4/5
f 22/4/5 18/4/5 19/4/5
f 11/3/6 18/4/6 22/4/6 14/3/6
f 14/3/7 22/4/7 21/4/7 15/3/7
f 15/2/8 21/1/8 20/1/8 16/2/8
f 16/2/9 20/1/9 17/1/9 12/2/9
f 10/3/10 9/4/10 18/4/10 11/3/10
f 6/3/4 3/3/4 10/3/4 11/3/4 13/3/4
f 8/1/11 7/2/11 12/2/11 17/1/11
f 1/2/4 6/2/4 13/2/4 12/2/4 7/2/4
f 4/4/5 5/4/5 19/4/5 18/4/5 9/4/5
f 5/1/5 2/1/5 8/1/5 17/1/5 19/1/5
f 28/1/5 24/1/5 32/1/5 36/1/5
f 25/4/5 29/4/5 37/4/5 33/4/5
f 8/1/3 2/1/3 24/1/3 28/1/3
f 7/2/3 8/1/3 28/1/3 27/2/3
f 10/3/3 3/3/3 26/3/3 30/3/3
f 3/3/3 4/4/3 25/4/3 26/3/3
f 1/2/3 7/2/3 27/2/3 23/2/3
f 9/4/3 10/3/3 30/3/3 29/4/3
f 32/1/12 31/2/12 35/2/12 36/1/12
f 34/3/13 33/4/13 37/4/13 38/3/13
f 27/2/14 28/1/14 36/1/14 35/2/14
f 24/1/15 23/2/15 31/2/15 32/1/15
f 30/3/4 26/3/4 34/3/4 38/3/4
f 23/2/4 27/2/4 35/2/4 31/2/4
f 29/4/16 30/3/16 38/3/16 37/4/16
f 26/3/17 25/4/17 33/4/17 34/3/17
f 51/7/5 41/1/5 45/8/5 50/9/5
f 50/10/18 45/4/18 43/3/18 52/11/18
f 49/12/19 39/2/19 41/1/19 51/7/19
f 52/11/4 43/3/4 39/2/4 49/12/4
f 39/2/4 43/3/4 48/2/4
f 45/8/5 41/1/5 47/8/5
f 46/13/3 42/13/3 58/13/3 54/13/3
f 49/12/3 51/7/3 57/7/3 56/12/3
f 40/13/3 44/13/3 53/13/3 55/13/3
f 51/7/3 50/9/3 60/9/3 57/7/3
f 58/13/3 55/13/3 63/13/3 66/13/3
f 59/11/3 56/12/3 64/12/3 67/11/3
f 60/10/3 59/11/3 67/11/3 68/10/3
f 55/13/3 53/13/3 61/13/3 63/13/3
f 50/10/3 52/11/3 59/11/3 60/10/3
f 44/13/3 46/13/3 54/13/3 53/13/3
f 42/13/3 40/13/3 55/13/3 58/13/3
f 52/11/3 49/12/3 56/12/3 59/11/3
f 67/11/20 64/12/20 72/12/20 75/11/20
f 68/10/21 67/11/21 75/11/21 76/10/21
f 57/7/3 60/9/3 68/9/3 65/7/3
f 53/13/3 54/13/3 62/13/3 61/13/3
f 56/12/3 57/7/3 65/7/3 64/12/3
f 54/13/3 58/13/3 66/13/3 62/13/3
f 69/14/4 75/11/4 72/12/4 71/15/4
f 71/15/19 72/12/19 73/7/19 74/16/19
f 70/17/18 76/10/18 75/11/18 69/14/18
f 74/16/5 73/7/5 76/9/5 70/18/5
f 65/7/22 68/9/22 76/9/22 73/7/22
f 64/12/23 65/7/23 73/7/23 72/12/23
usemtl 
f 77/17/18 78/4/18 80/3/18 79/14/18
f 79/14/4 80/3/4 84/2/4 83/15/4
f 83/15/19 84/2/19 82/1/19 81/16/19
f 81/16/5 82/1/5 78/8/5 77/18/5
f 80/3/24 78/4/24 85/4/24 86/3/24
f 87/2/4 86/3/4 94/3/4 95/2/4
f 78/8/24 82/1/24 88/1/24 85/8/24
f 84/2/24 80/3/24 86/3/24 87/2/24
f 82/1/24 84/2/24 87/2/24 88/1/24
f 92/19/18 91/20/18 99/20/18 100/19/18
f 88/1/19 87/2/19 95/2/19 96/1/19
f 86/3/18 85/4/18 93/4/18 94/3/18
f 85/8/5 88/1/5 96/1/5 93/8/5
f 89/21/3 90/22/3 94/23/3 93/24/3
f 90/22/3 91/20/3 95/2/3 94/23/3
f 91/20/3 92/19/3 96/1/3 95/2/3
f 92/19/3 89/21/3 93/24/3 96/1/3
f 99/20/3 98/22/3 97/21/3 100/19/3
f 90/22/19 89/21/19 97/21/19 98/22/19
f 89/21/4 92/19/4 100/19/4 97/21/4
f 91/20/5 90/22/5 98/22/5 99/20/5
f 101/17/18 102/4/18 104/3/18 103/14/18
f 103/14/5 104/3/5 108/2/5 107/15/5
f 107/15/19 108/2/19 106/1/19 105/16/19
f 105/16/4 106/1/4 102/8/4 101/18/4
f 103/25/3 107/15/3 105/16/3 101/26/3
f 108/2/24 104/23/24 102/24/24 106/1/24
