# Blender 5.0.1
# www.blender.org
mtllib Road.mtl
o Road
v -8.000000 0.110000 10.000000
v -5.000000 0.110000 10.000000
v -8.000000 0.110000 -10.000000
v -5.000000 0.110000 -10.000000
v -5.000000 0.100000 10.000001
v 5.000000 0.100000 10.000001
v -5.000000 0.100000 -10.000001
v 5.000000 0.100000 -10.000001
v -0.500000 0.150000 9.300001
v 0.500000 0.150000 9.300001
v -0.500000 0.150000 7.300001
v 0.500000 0.150000 7.300001
v -0.500000 0.150000 6.000001
v 0.500000 0.150000 6.000001
v -0.500000 0.150000 4.000000
v 0.500000 0.150000 4.000000
v -0.500000 0.150000 2.700000
v 0.500000 0.150000 2.700000
v -0.500000 0.150000 0.700000
v 0.500000 0.150000 0.700000
v -0.500000 0.150000 -0.600000
v 0.500000 0.150000 -0.600000
v -0.500000 0.150000 -2.600000
v 0.500000 0.150000 -2.600000
v -0.500000 0.150000 -3.900001
v 0.500000 0.150000 -3.900001
v -0.500000 0.150000 -5.900001
v 0.500000 0.150000 -5.900001
v -0.500000 0.150000 -7.200000
v 0.500000 0.150000 -7.200000
v -0.500000 0.150000 -9.200001
v 0.500000 0.150000 -9.200001
v 5.000000 0.110000 10.000001
v 8.000000 0.110000 10.000001
v 5.000000 0.110000 -10.000001
v 8.000000 0.110000 -10.000001
vn -0.0000 1.0000 -0.0000
vt 0.000000 0.000000
vt 1.000000 0.000000
vt 1.000000 1.000000
vt 0.000000 1.000000
s 0
usemtl Material.005
f 1/1/1 2/2/1 4/3/1 3/4/1
usemtl Material.001
f 5/1/1 6/2/1 8/3/1 7/4/1
usemtl 
f 9/1/1 10/2/1 12/3/1 11/4/1
f 13/1/1 14/2/1 16/3/1 15/4/1
f 17/1/1 18/2/1 20/3/1 19/4/1
f 21/1/1 22/2/1 24/3/1 23/4/1
f 25/1/1 26/2/1 28/3/1 27/4/1
f 29/1/1 30/2/1 32/3/1 31/4/1
usemtl Material.004
f 33/1/1 34/2/1 36/3/1 35/4/1
